<svg version="1.1" viewBox="0.0 0.0 416.0551181102362 413.65616797900265" fill="none" stroke="none" stroke-linecap="square" stroke-miterlimit="10" xmlns:xlink="http://www.w3.org/1999/xlink" xmlns="http://www.w3.org/2000/svg"><clipPath id="p.0"><path d="m0 0l416.0551 0l0 413.65616l-416.0551 0l0 -413.65616z" clip-rule="nonzero"/></clipPath><g clip-path="url(#p.0)"><path fill="#000000" fill-opacity="0.0" d="m0 0l416.0551 0l0 413.65616l-416.0551 0z" fill-rule="evenodd"/><defs><linearGradient id="p.1" gradientUnits="userSpaceOnUse" gradientTransform="matrix(23.11938424435535 0.0 0.0 23.11938424435535 0.0 0.0)" spreadMethod="pad" x1="-7.356542819647345" y1="8.946059489517806" x2="8.991300844249599" y2="25.293962577649044"><stop offset="0.0" stop-color="#e7e7e7"/><stop offset="1.0" stop-color="#d9fbff"/></linearGradient></defs><path fill="url(#p.1)" d="m18.897638 206.82808l0 0c0 -104.36877 84.607605 -188.97638 188.97636 -188.97638l0 0c50.119644 0 98.18654 19.909956 133.62648 55.3499c35.43994 35.43994 55.349915 83.50683 55.349915 133.62646l0 0c0 104.36879 -84.607605 188.9764 -188.9764 188.9764l0 0c-104.36877 0 -188.97636 -84.607605 -188.97636 -188.9764z" fill-rule="evenodd"/><path stroke="#980000" stroke-width="8.0" stroke-linejoin="round" stroke-linecap="butt" d="m18.897638 206.82808l0 0c0 -104.36877 84.607605 -188.97638 188.97636 -188.97638l0 0c50.119644 0 98.18654 19.909956 133.62648 55.3499c35.43994 35.43994 55.349915 83.50683 55.349915 133.62646l0 0c0 104.36879 -84.607605 188.9764 -188.9764 188.9764l0 0c-104.36877 0 -188.97636 -84.607605 -188.97636 -188.9764z" fill-rule="evenodd"/><path fill="#000000" d="m203.30315 36.749344l9.448822 0l0 37.795273l-9.448822 0z" fill-rule="evenodd"/><path fill="#000000" d="m203.30315 339.11154l9.448822 0l0 37.795288l-9.448822 0z" fill-rule="evenodd"/><path fill="#000000" d="m288.97244 57.177l8.188965 4.724411l-18.897614 32.724407l-8.188995 -4.724411z" fill-rule="evenodd"/><path fill="#000000" d="m137.79134 319.03036l8.18898 4.7243958l-18.897636 32.724396l-8.18898 -4.7243958z" fill-rule="evenodd"/><path fill="#000000" d="m352.95422 117.69423l4.7244263 8.188972l-32.724426 18.897636l-4.7243958 -8.18898z" fill-rule="evenodd"/><path fill="#000000" d="m91.10088 268.87534l4.724411 8.188965l-32.72441 18.897644l-4.724411 -8.188965z" fill-rule="evenodd"/><path fill="#000000" d="m378.1022 202.10022l0 9.448822l-37.795288 0l0 -9.448822z" fill-rule="evenodd"/><path fill="#000000" d="m75.74 202.10023l0 9.448807l-37.795273 0l0 -9.448807z" fill-rule="evenodd"/><path fill="#000000" d="m357.6782 287.77255l-4.7244263 8.188965l-32.724396 -18.897644l4.7243958 -8.188965z" fill-rule="evenodd"/><path fill="#000000" d="m95.82483 136.59145l-4.724411 8.18898l-32.72441 -18.897644l4.724411 -8.188972z" fill-rule="evenodd"/><path fill="#000000" d="m297.15628 351.75354l-8.188965 4.7243958l-18.897644 -32.724396l8.188995 -4.7244263z" fill-rule="evenodd"/><path fill="#000000" d="m145.97519 89.900185l-8.18898 4.7244034l-18.897629 -32.724407l8.188972 -4.724407z" fill-rule="evenodd"/><defs><linearGradient id="p.2" gradientUnits="userSpaceOnUse" gradientTransform="matrix(15.071255491472236 0.0 0.0 15.071255491472236 0.0 0.0)" spreadMethod="pad" x1="3.1454976405955635" y1="13.723601068465126" x2="13.802465551844612" y2="24.380607075212055"><stop offset="0.0" stop-color="#666666"/><stop offset="1.0" stop-color="#0c343d"/></linearGradient></defs><path fill="url(#p.2)" d="m143.82413 166.3165l14.067505 38.194885l-28.503036 0l14.435532 -38.194885zm-5.1526184 -16.459793l-34.28952 87.94229l12.697548 0l8.403694 -22.491638l36.313766 0l8.403687 22.491638l12.942917 0l-34.28952 -87.94229z" fill-rule="evenodd"/><defs><linearGradient id="p.3" gradientUnits="userSpaceOnUse" gradientTransform="matrix(15.071255491472236 0.0 0.0 15.071255491472236 0.0 0.0)" spreadMethod="pad" x1="3.1454976405955635" y1="13.723601068465126" x2="13.802465551844612" y2="24.380607075212055"><stop offset="0.0" stop-color="#666666"/><stop offset="1.0" stop-color="#0c343d"/></linearGradient></defs><path fill="url(#p.3)" d="m215.3156 186.04779c4.9345245 0 8.989838 1.676651 12.165924 5.029953c3.1897278 3.3396606 4.7845917 7.858429 4.7845917 13.55632c0 5.697876 -1.5948639 10.2643585 -4.7845917 13.699448c-3.1760864 3.435089 -7.2313995 5.1526184 -12.165924 5.1526184c-4.866379 0 -8.826263 -1.7175293 -11.879669 -5.1526184c-3.0534058 -3.435089 -4.580124 -8.001572 -4.580124 -13.699448c0 -5.697891 1.5267029 -10.21666 4.580124 -13.55632c3.0534058 -3.353302 7.0132904 -5.029953 11.879669 -5.029953zm-0.756546 -10.059891c-5.193512 0 -9.841782 1.1313934 -13.944809 3.3941956c-4.103012 2.2627869 -7.306366 5.5070343 -9.610062 9.732742c-2.3036804 4.2256927 -3.4555206 9.398773 -3.4555206 15.519226c0 6.0250244 1.1518402 11.198105 3.4555206 15.519226c2.3036957 4.30748 5.5070496 7.592621 9.610062 9.855423c4.1030273 2.2627869 8.751297 3.3941956 13.944809 3.3941956c3.5168762 0 6.72023 -0.7088318 9.610062 -2.1264954c2.8898468 -1.4312744 5.3366547 -3.401001 7.340454 -5.9091644l0 6.6452637c0 7.29274 -1.3835754 12.6770935 -4.1507263 16.153076c-2.7535248 3.4759827 -6.856537 5.213974 -12.3090515 5.213974c-7.7016907 0 -13.43364 -3.182907 -17.195877 -9.548721l-9.057999 6.1545258c5.779663 9.214737 14.53096 13.822128 26.253876 13.822128c8.969391 0 15.819107 -2.7058105 20.549164 -8.117432c4.730057 -5.397995 7.095093 -13.290512 7.095093 -23.677551l0 -54.511536l-9.916763 0l-0.38848877 7.2790985c-2.0855865 -2.7671356 -4.661911 -4.920883 -7.728943 -6.4612274c-3.053421 -1.5539703 -6.420349 -2.3309479 -10.1008 -2.3309479z" fill-rule="evenodd"/><defs><linearGradient id="p.4" gradientUnits="userSpaceOnUse" gradientTransform="matrix(15.071255491472236 0.0 0.0 15.071255491472236 0.0 0.0)" spreadMethod="pad" x1="3.1454976405955635" y1="13.723601068465126" x2="13.802465551844612" y2="24.380607075212055"><stop offset="0.0" stop-color="#666666"/><stop offset="1.0" stop-color="#0c343d"/></linearGradient></defs><path fill="url(#p.4)" d="m284.52664 185.16858c4.1030273 0 7.490387 1.3426819 10.16214 4.0280457c2.6853638 2.6717377 4.3688354 6.181793 5.0503845 10.530167l-31.672302 0c0.9269104 -4.7709503 2.8148499 -8.39006 5.663788 -10.857315c2.848938 -2.46727 6.4476013 -3.7008972 10.79599 -3.7008972zm0.122680664 -9.180679c-5.5206604 0 -10.400665 1.3017883 -14.640015 3.905365c-4.2256775 2.5899506 -7.5517273 6.249954 -9.978088 10.980011c-2.4263916 4.730057 -3.639557 10.318878 -3.639557 16.76648c0 6.706604 1.2131653 12.424927 3.639557 17.154984c2.426361 4.730057 5.813751 8.315094 10.162109 10.755096c4.36203 2.426361 9.391968 3.639557 15.089844 3.639557c5.943268 0 11.109528 -1.3426819 15.498779 -4.028061c4.4029236 -2.6853638 8.028839 -6.9587708 10.877777 -12.820221l-8.546814 -5.6433563c-1.9220276 4.184799 -4.2870483 7.3268127 -7.095093 9.426041c-2.794403 2.0855865 -6.331726 3.1283722 -10.611969 3.1283722c-5.357086 0 -9.65094 -1.7379761 -12.881561 -5.2139587c-3.21698 -3.4759827 -4.907257 -8.560455 -5.0708313 -15.253418l43.327057 0l0 -3.0261536c0 -5.357086 -1.0291748 -10.291626 -3.087494 -14.803574c-2.0446777 -4.525589 -5.016327 -8.15152 -8.914856 -10.877777c-3.8849182 -2.7262573 -8.594543 -4.089386 -14.128845 -4.089386z" fill-rule="evenodd"/></g></svg>