<svg height="512" version="1.1" width="512" xmlns="http://www.w3.org/2000/svg"><desc>Created with Snap</desc><defs></defs><g shape-rendering="crispEdges"><rect x="160" y="0" width="32" height="32" rx="0" ry="0" fill="#000000" style=""></rect><rect x="192" y="0" width="32" height="32" rx="0" ry="0" fill="#000000" style=""></rect><rect x="224" y="0" width="32" height="32" rx="0" ry="0" fill="#000000" style=""></rect><rect x="256" y="0" width="32" height="32" rx="0" ry="0" fill="#000000" style=""></rect><rect x="288" y="0" width="32" height="32" rx="0" ry="0" fill="#000000" style=""></rect><rect x="320" y="0" width="32" height="32" rx="0" ry="0" fill="#000000" style=""></rect><rect x="96" y="32" width="32" height="32" rx="0" ry="0" fill="#000000" style=""></rect><rect x="128" y="32" width="32" height="32" rx="0" ry="0" fill="#000000" style=""></rect><rect x="160" y="32" width="32" height="32" rx="0" ry="0" fill="#000000" style=""></rect><rect x="192" y="32" width="32" height="32" rx="0" ry="0" fill="#000000" style=""></rect><rect x="224" y="32" width="32" height="32" rx="0" ry="0" fill="#000000" style=""></rect><rect x="256" y="32" width="32" height="32" rx="0" ry="0" fill="#000000" style=""></rect><rect x="288" y="32" width="32" height="32" rx="0" ry="0" fill="#000000" style=""></rect><rect x="320" y="32" width="32" height="32" rx="0" ry="0" fill="#000000" style=""></rect><rect x="352" y="32" width="32" height="32" rx="0" ry="0" fill="#000000" style=""></rect><rect x="384" y="32" width="32" height="32" rx="0" ry="0" fill="#000000" style=""></rect><rect x="64" y="64" width="32" height="32" rx="0" ry="0" fill="#000000" style=""></rect><rect x="96" y="64" width="32" height="32" rx="0" ry="0" fill="#000000" style=""></rect><rect x="128" y="64" width="32" height="32" rx="0" ry="0" fill="#000000" style=""></rect><rect x="160" y="64" width="32" height="32" rx="0" ry="0" fill="#000000" style=""></rect><rect x="192" y="64" width="32" height="32" rx="0" ry="0" fill="#000000" style=""></rect><rect x="224" y="64" width="32" height="32" rx="0" ry="0" fill="#000000" style=""></rect><rect x="256" y="64" width="32" height="32" rx="0" ry="0" fill="#000000" style=""></rect><rect x="288" y="64" width="32" height="32" rx="0" ry="0" fill="#000000" style=""></rect><rect x="320" y="64" width="32" height="32" rx="0" ry="0" fill="#000000" style=""></rect><rect x="352" y="64" width="32" height="32" rx="0" ry="0" fill="#000000" style=""></rect><rect x="384" y="64" width="32" height="32" rx="0" ry="0" fill="#000000" style=""></rect><rect x="416" y="64" width="32" height="32" rx="0" ry="0" fill="#000000" style=""></rect><rect x="32" y="96" width="32" height="32" rx="0" ry="0" fill="#000000" style=""></rect><rect x="64" y="96" width="32" height="32" rx="0" ry="0" fill="#000000" style=""></rect><rect x="96" y="96" width="32" height="32" rx="0" ry="0" fill="#000000" style=""></rect><rect x="128" y="96" width="32" height="32" rx="0" ry="0" fill="#000000" style=""></rect><rect x="352" y="96" width="32" height="32" rx="0" ry="0" fill="#000000" style=""></rect><rect x="384" y="96" width="32" height="32" rx="0" ry="0" fill="#000000" style=""></rect><rect x="416" y="96" width="32" height="32" rx="0" ry="0" fill="#000000" style=""></rect><rect x="448" y="96" width="32" height="32" rx="0" ry="0" fill="#000000" style=""></rect><rect x="32" y="128" width="32" height="32" rx="0" ry="0" fill="#000000" style=""></rect><rect x="64" y="128" width="32" height="32" rx="0" ry="0" fill="#000000" style=""></rect><rect x="96" y="128" width="32" height="32" rx="0" ry="0" fill="#000000" style=""></rect><rect x="384" y="128" width="32" height="32" rx="0" ry="0" fill="#000000" style=""></rect><rect x="416" y="128" width="32" height="32" rx="0" ry="0" fill="#000000" style=""></rect><rect x="448" y="128" width="32" height="32" rx="0" ry="0" fill="#000000" style=""></rect><rect x="0" y="160" width="32" height="32" rx="0" ry="0" fill="#000000" style=""></rect><rect x="32" y="160" width="32" height="32" rx="0" ry="0" fill="#000000" style=""></rect><rect x="64" y="160" width="32" height="32" rx="0" ry="0" fill="#000000" style=""></rect><rect x="416" y="160" width="32" height="32" rx="0" ry="0" fill="#000000" style=""></rect><rect x="448" y="160" width="32" height="32" rx="0" ry="0" fill="#000000" style=""></rect><rect x="480" y="160" width="32" height="32" rx="0" ry="0" fill="#000000" style=""></rect><rect x="0" y="192" width="32" height="32" rx="0" ry="0" fill="#000000" style=""></rect><rect x="32" y="192" width="32" height="32" rx="0" ry="0" fill="#000000" style=""></rect><rect x="64" y="192" width="32" height="32" rx="0" ry="0" fill="#000000" style=""></rect><rect x="416" y="192" width="32" height="32" rx="0" ry="0" fill="#000000" style=""></rect><rect x="448" y="192" width="32" height="32" rx="0" ry="0" fill="#000000" style=""></rect><rect x="480" y="192" width="32" height="32" rx="0" ry="0" fill="#000000" style=""></rect><rect x="0" y="224" width="32" height="32" rx="0" ry="0" fill="#000000" style=""></rect><rect x="32" y="224" width="32" height="32" rx="0" ry="0" fill="#000000" style=""></rect><rect x="64" y="224" width="32" height="32" rx="0" ry="0" fill="#000000" style=""></rect><rect x="416" y="224" width="32" height="32" rx="0" ry="0" fill="#000000" style=""></rect><rect x="448" y="224" width="32" height="32" rx="0" ry="0" fill="#000000" style=""></rect><rect x="480" y="224" width="32" height="32" rx="0" ry="0" fill="#000000" style=""></rect><rect x="0" y="256" width="32" height="32" rx="0" ry="0" fill="#000000" style=""></rect><rect x="32" y="256" width="32" height="32" rx="0" ry="0" fill="#000000" style=""></rect><rect x="64" y="256" width="32" height="32" rx="0" ry="0" fill="#000000" style=""></rect><rect x="416" y="256" width="32" height="32" rx="0" ry="0" fill="#000000" style=""></rect><rect x="448" y="256" width="32" height="32" rx="0" ry="0" fill="#000000" style=""></rect><rect x="480" y="256" width="32" height="32" rx="0" ry="0" fill="#000000" style=""></rect><rect x="0" y="288" width="32" height="32" rx="0" ry="0" fill="#000000" style=""></rect><rect x="32" y="288" width="32" height="32" rx="0" ry="0" fill="#000000" style=""></rect><rect x="64" y="288" width="32" height="32" rx="0" ry="0" fill="#000000" style=""></rect><rect x="416" y="288" width="32" height="32" rx="0" ry="0" fill="#000000" style=""></rect><rect x="448" y="288" width="32" height="32" rx="0" ry="0" fill="#000000" style=""></rect><rect x="480" y="288" width="32" height="32" rx="0" ry="0" fill="#000000" style=""></rect><rect x="0" y="320" width="32" height="32" rx="0" ry="0" fill="#000000" style=""></rect><rect x="32" y="320" width="32" height="32" rx="0" ry="0" fill="#000000" style=""></rect><rect x="64" y="320" width="32" height="32" rx="0" ry="0" fill="#000000" style=""></rect><rect x="416" y="320" width="32" height="32" rx="0" ry="0" fill="#000000" style=""></rect><rect x="448" y="320" width="32" height="32" rx="0" ry="0" fill="#000000" style=""></rect><rect x="480" y="320" width="32" height="32" rx="0" ry="0" fill="#000000" style=""></rect><rect x="32" y="352" width="32" height="32" rx="0" ry="0" fill="#000000" style=""></rect><rect x="64" y="352" width="32" height="32" rx="0" ry="0" fill="#000000" style=""></rect><rect x="96" y="352" width="32" height="32" rx="0" ry="0" fill="#000000" style=""></rect><rect x="384" y="352" width="32" height="32" rx="0" ry="0" fill="#000000" style=""></rect><rect x="416" y="352" width="32" height="32" rx="0" ry="0" fill="#000000" style=""></rect><rect x="448" y="352" width="32" height="32" rx="0" ry="0" fill="#000000" style=""></rect><rect x="32" y="384" width="32" height="32" rx="0" ry="0" fill="#000000" style=""></rect><rect x="64" y="384" width="32" height="32" rx="0" ry="0" fill="#000000" style=""></rect><rect x="96" y="384" width="32" height="32" rx="0" ry="0" fill="#000000" style=""></rect><rect x="128" y="384" width="32" height="32" rx="0" ry="0" fill="#000000" style=""></rect><rect x="352" y="384" width="32" height="32" rx="0" ry="0" fill="#000000" style=""></rect><rect x="384" y="384" width="32" height="32" rx="0" ry="0" fill="#000000" style=""></rect><rect x="416" y="384" width="32" height="32" rx="0" ry="0" fill="#000000" style=""></rect><rect x="448" y="384" width="32" height="32" rx="0" ry="0" fill="#000000" style=""></rect><rect x="64" y="416" width="32" height="32" rx="0" ry="0" fill="#000000" style=""></rect><rect x="96" y="416" width="32" height="32" rx="0" ry="0" fill="#000000" style=""></rect><rect x="128" y="416" width="32" height="32" rx="0" ry="0" fill="#000000" style=""></rect><rect x="160" y="416" width="32" height="32" rx="0" ry="0" fill="#000000" style=""></rect><rect x="192" y="416" width="32" height="32" rx="0" ry="0" fill="#000000" style=""></rect><rect x="224" y="416" width="32" height="32" rx="0" ry="0" fill="#000000" style=""></rect><rect x="256" y="416" width="32" height="32" rx="0" ry="0" fill="#000000" style=""></rect><rect x="288" y="416" width="32" height="32" rx="0" ry="0" fill="#000000" style=""></rect><rect x="320" y="416" width="32" height="32" rx="0" ry="0" fill="#000000" style=""></rect><rect x="352" y="416" width="32" height="32" rx="0" ry="0" fill="#000000" style=""></rect><rect x="384" y="416" width="32" height="32" rx="0" ry="0" fill="#000000" style=""></rect><rect x="416" y="416" width="32" height="32" rx="0" ry="0" fill="#000000" style=""></rect><rect x="96" y="448" width="32" height="32" rx="0" ry="0" fill="#000000" style=""></rect><rect x="128" y="448" width="32" height="32" rx="0" ry="0" fill="#000000" style=""></rect><rect x="160" y="448" width="32" height="32" rx="0" ry="0" fill="#000000" style=""></rect><rect x="192" y="448" width="32" height="32" rx="0" ry="0" fill="#000000" style=""></rect><rect x="224" y="448" width="32" height="32" rx="0" ry="0" fill="#000000" style=""></rect><rect x="256" y="448" width="32" height="32" rx="0" ry="0" fill="#000000" style=""></rect><rect x="288" y="448" width="32" height="32" rx="0" ry="0" fill="#000000" style=""></rect><rect x="320" y="448" width="32" height="32" rx="0" ry="0" fill="#000000" style=""></rect><rect x="352" y="448" width="32" height="32" rx="0" ry="0" fill="#000000" style=""></rect><rect x="384" y="448" width="32" height="32" rx="0" ry="0" fill="#000000" style=""></rect><rect x="160" y="480" width="32" height="32" rx="0" ry="0" fill="#000000" style=""></rect><rect x="192" y="480" width="32" height="32" rx="0" ry="0" fill="#000000" style=""></rect><rect x="224" y="480" width="32" height="32" rx="0" ry="0" fill="#000000" style=""></rect><rect x="256" y="480" width="32" height="32" rx="0" ry="0" fill="#000000" style=""></rect><rect x="288" y="480" width="32" height="32" rx="0" ry="0" fill="#000000" style=""></rect><rect x="320" y="480" width="32" height="32" rx="0" ry="0" fill="#000000" style=""></rect></g></svg>