<svg version="1.1" viewBox="0.0 0.0 377.93700787401576 377.96062992125985" fill="none" stroke="none" stroke-linecap="square" stroke-miterlimit="10" xmlns:xlink="http://www.w3.org/1999/xlink" xmlns="http://www.w3.org/2000/svg"><clipPath id="p.0"><path d="m0 0l377.937 0l0 377.96063l-377.937 0l0 -377.96063z" clip-rule="nonzero"/></clipPath><g clip-path="url(#p.0)"><path fill="#000000" fill-opacity="0.0" d="m0 0l377.937 0l0 377.96063l-377.937 0z" fill-rule="evenodd"/><path fill="#000000" d="m65.11391 27.99437l-15.65831 83.03316l18.635597 2.4259415c2.9405289 -4.6313324 6.983757 -8.392761 12.129677 -11.284279c5.1459274 -2.9160233 10.91671 -4.3740387 17.312363 -4.3740387c10.291847 0 18.611092 3.2713394 24.957726 9.814018c6.371147 6.542671 9.556725 15.474525 9.556725 26.795555c0 11.909149 -3.3081055 21.46585 -9.924286 28.67015c-6.616188 7.2043 -14.702644 10.806442 -24.259361 10.806442c-7.9394226 0 -14.727142 -2.548462 -20.363152 -7.6453705c-5.611511 -5.1214294 -9.189156 -12.754547 -10.732925 -22.899368l-20.840996 1.7643127c1.3232384 13.599945 6.628441 24.516663 15.915607 32.750137c9.311672 8.233475 21.318829 12.35022 36.021465 12.35022c17.937225 0 32.08851 -6.542679 42.45388 -19.628021c8.527527 -10.659424 12.79129 -23.303696 12.79129 -37.932816c0 -15.364258 -4.8518677 -27.93502 -14.555603 -37.712273c-9.703751 -9.77726 -21.612892 -14.665886 -35.727425 -14.665886c-10.659416 0 -20.840988 3.381607 -30.544731 10.144821l8.711311 -43.4463l64.507835 0l0 -18.966404z" fill-rule="evenodd"/><path fill="#000000" d="m45.926987 332.09256l261.14124 -286.2047l24.9375 0l-261.14127 286.2047z" fill-rule="evenodd"/><path fill="#000000" d="m276.05856 224.94633l0 72.88832l-50.613846 0l50.613846 -72.88832zm3.6388855 -31.867981l-73.77049 104.7563l0 18.194519l70.13161 0l0 38.704712l19.848572 0l0 -38.704712l21.833405 0l0 -18.194519l-21.833405 0l0 -104.7563z" fill-rule="evenodd"/><path fill="#000000" d="m161.01575 117.5l27.952759 -27.952759l27.952759 27.952759l-20.396286 0l0 142.96063l20.396286 0l-27.952759 27.952759l-27.952759 -27.952759l20.396286 0l0 -142.96063z" fill-rule="evenodd"/></g></svg>