<svg version="1.1" viewBox="0.0 0.0 377.93700787401576 377.96062992125985" fill="none" stroke="none" stroke-linecap="square" stroke-miterlimit="10" xmlns:xlink="http://www.w3.org/1999/xlink" xmlns="http://www.w3.org/2000/svg"><clipPath id="p.0"><path d="m0 0l377.937 0l0 377.96063l-377.937 0l0 -377.96063z" clip-rule="nonzero"/></clipPath><g clip-path="url(#p.0)"><path fill="#000000" fill-opacity="0.0" d="m0 0l377.937 0l0 377.96063l-377.937 0z" fill-rule="evenodd"/><path fill="#000000" d="m-2.598304 108.84345c-12.791297 0 -23.487467 3.6634064 -32.088512 10.990227c-8.601044 7.302307 -14.114532 17.606415 -16.54047 30.912292l19.848566 3.5286407c1.4702625 -9.703751 4.7783566 -16.981552 9.924282 -21.83342c5.1459236 -4.8518753 11.578328 -7.277809 19.297215 -7.277809c7.7923994 0 14.151291 2.3891754 19.076675 7.167534c4.9253845 4.778366 7.388077 10.806442 7.388077 18.084244c0 9.189163 -3.381607 15.9891205 -10.144822 20.399918c-6.763214 4.410797 -14.37183 6.6161957 -22.825848 6.6161957c-0.80864525 0 -1.8745861 -0.073516846 -3.1978245 -0.22055054l-2.2053957 17.422638c5.5870037 -1.4702759 10.255092 -2.2053986 14.004265 -2.2053986c9.18915 0 16.761011 2.9650269 22.71558 8.895096c5.954569 5.905548 8.931854 13.416153 8.931854 22.5318c0 9.556717 -3.222332 17.569656 -9.666986 24.038818c-6.4201555 6.469162 -14.298317 9.703735 -23.634495 9.703735c-7.8659124 0 -14.543355 -2.474945 -20.032347 -7.424835c-5.4644756 -4.9743958 -9.336176 -13.085342 -11.615086 -24.33287l-19.848564 2.6464844c1.3232384 13.452911 6.665203 24.406372 16.025879 32.860397c9.385191 8.45401 21.1718 12.68103 35.359848 12.68103c15.731825 0 28.743662 -4.900879 39.03551 -14.702637c10.291847 -9.826279 15.437771 -21.796677 15.437771 -35.91121c0 -10.438873 -2.646473 -19.125671 -7.9394264 -26.060425c-5.2929497 -6.959244 -12.717783 -11.54158 -22.274498 -13.7469635c7.3513203 -3.381607 12.901566 -7.939438 16.650738 -13.673462c3.749176 -5.734024 5.62376 -12.092926 5.62376 -19.076675c0 -7.3513184 -1.9726067 -14.298325 -5.9178123 -20.840988c-3.9207077 -6.542679 -9.593472 -11.700859 -17.018305 -15.474533c-7.4248333 -3.7981873 -15.548042 -5.6972733 -24.369627 -5.6972733z" fill-rule="evenodd"/><path fill="#000000" d="m83.41214 248.5553l0 22.605316l22.605309 0l0 -22.605316z" fill-rule="evenodd"/><path fill="#000000" d="m196.99004 108.84345c-3.455124 6.983757 -9.336182 14.188049 -17.643173 21.612877c-8.306992 7.424835 -18.010727 13.746979 -29.111221 18.966415l0 19.186935c6.17511 -2.2789001 13.134354 -5.6972656 20.877747 -10.255081c7.7678986 -4.557831 14.041016 -9.115646 18.819382 -13.673462l0 126.47948l19.848557 0l0 -162.31717z" fill-rule="evenodd"/><path fill="#000000" d="m324.2414 141.37305l0 72.888336l-50.61386 0l50.61386 -72.888336zm3.6388855 -31.867973l-73.77049 104.75631l0 18.194519l70.13161 0l0 38.704712l19.848572 0l0 -38.704712l21.833405 0l0 -18.194519l-21.833405 0l0 -104.75631z" fill-rule="evenodd"/><path fill="#ff0000" d="m125.61426 289.1168l109.87541 -195.46457l16.833252 0l-109.87541 195.46457z" fill-rule="evenodd"/><path fill="#ff0000" d="m247.0328 190.48294l163.49606 0l0 18.015747l-163.49606 0z" fill-rule="evenodd"/><path fill="#ff0000" d="m145.43103 72.541595c-5.9236145 0 -10.642654 1.5399475 -14.157135 4.6198425c-3.5144882 3.0704498 -5.540985 7.539139 -6.0794983 13.406059l7.865082 0.80776215c0.028335571 -3.9112778 1.1478729 -6.9722824 3.3585968 -9.183006c2.2107239 -2.2107239 5.1583557 -3.3160858 8.8428955 -3.3160858c3.486145 0 6.310959 1.043953 8.474442 3.1318588c2.1729279 2.0784607 3.2593994 4.634018 3.2593994 7.6666794c0 2.8909454 -1.1903992 5.9613953 -3.571167 9.2113495c-2.380783 3.2405014 -6.9581146 7.6383286 -13.731995 13.193481c-4.3647614 3.571167 -7.704468 6.717201 -10.019119 9.438095c-2.3051987 2.7208862 -3.9821396 5.484291 -5.030815 8.290215c-0.65187836 1.7005463 -0.94947815 3.4719696 -0.89279175 5.3142395l41.19599 0l0 -7.354912l-30.567505 0c0.8502655 -1.3887863 1.9272919 -2.7681274 3.2310486 -4.1380234c1.3037567 -1.3793411 4.2513885 -3.9963074 8.8428955 -7.8508987c5.498474 -4.6481934 9.42865 -8.30439 11.790527 -10.968597c2.371338 -2.6641998 4.067169 -5.2008667 5.087494 -7.6099854c1.02034 -2.4091263 1.5305023 -4.8607635 1.5305023 -7.354912c0 -4.9032745 -1.7430573 -9.012947 -5.2292023 -12.329033c-3.486145 -3.3160858 -8.21936 -4.9741287 -14.199646 -4.9741287z" fill-rule="evenodd"/></g></svg>