<svg version="1.1" viewBox="0.0 0.0 684.9580052493438 677.1391076115485" fill="none" stroke="none" stroke-linecap="square" stroke-miterlimit="10" xmlns:xlink="http://www.w3.org/1999/xlink" xmlns="http://www.w3.org/2000/svg"><clipPath id="p.0"><path d="m0 0l684.958 0l0 677.1391l-684.958 0l0 -677.1391z" clip-rule="nonzero"/></clipPath><g clip-path="url(#p.0)"><path fill="#000000" fill-opacity="0.0" d="m0 0l684.958 0l0 677.1391l-684.958 0z" fill-rule="evenodd"/><path fill="#ffca00" d="m5.9272966 338.56903l0 0c0 -185.87209 150.67911 -336.55118 336.55118 -336.55118l0 0c89.25891 0 174.86203 35.45797 237.97763 98.57356c63.1156 63.115593 98.57355 148.71869 98.57355 237.97763l0 0c0 185.87207 -150.67908 336.5512 -336.55118 336.5512l0 0c-185.87209 0 -336.55118 -150.67914 -336.55118 -336.5512z" fill-rule="evenodd"/><path fill="#ffe700" d="m36.496613 338.53992l0 0c0 -168.97304 136.97972 -305.95276 305.95276 -305.95276l0 0c81.14371 0 158.96399 32.23422 216.34128 89.611496c57.37726 57.377274 89.61145 135.19756 89.61145 216.34126l0 0c0 168.97305 -136.9797 305.95276 -305.95273 305.95276l0 0c-168.97304 0 -305.95276 -136.9797 -305.95276 -305.95276z" fill-rule="evenodd"/><path fill="#ff9900" d="m329.47342 158.7354l0 133.59178c-21.99704 -6.6170044 -37.61554 -15.469452 -46.85547 -26.557404c-9.180359 -11.087936 -13.770508 -24.858444 -13.770508 -41.31151c0 -16.631912 5.394928 -31.02835 16.184814 -43.189316c10.849487 -12.160965 25.663208 -19.67215 44.441162 -22.533554zm28.435211 186.70659c25.931458 8.405365 43.219116 17.94339 51.862946 28.614044c8.70343 10.611023 13.055145 24.679596 13.055145 42.20569c0 20.566345 -6.140106 37.82419 -18.420288 51.77353c-12.220581 13.949341 -27.719849 22.086456 -46.497803 24.411346l0 -147.00461zm-28.435211 -250.01515l0 23.070068c-32.011932 3.219078 -56.15503 11.982132 -72.42926 26.289154c-24.321945 21.281693 -36.48291 49.090958 -36.48291 83.427795c0 19.314484 4.1430817 36.57231 12.4292145 51.773514c8.345764 15.201233 20.208664 27.093933 35.58873 35.67813c20.745148 11.624451 41.043243 19.314484 60.894226 23.070068l0 153.71103c-18.956787 -1.9671936 -35.231018 -11.535034 -48.822693 -28.70343c-9.478394 -12.16098 -16.095398 -31.207184 -19.850983 -57.13867l-48.55446 9.120728c1.7883911 25.037292 8.166931 46.229553 19.13565 63.576813c11.02832 17.34726 24.08348 29.925507 39.16545 37.73477c15.141602 7.749634 34.783936 13.144592 58.927032 16.184814l0 48.286194l28.435211 0l0 -48.822693c33.800323 -1.6095581 61.34134 -13.591675 82.62302 -35.94641c21.281708 -22.354706 31.922546 -50.253387 31.922546 -83.696045c0 -15.201233 -2.563324 -29.329407 -7.690033 -42.384552c-5.067047 -13.055145 -12.339783 -24.32193 -21.818176 -33.800323c-9.478424 -9.478424 -21.72879 -17.526123 -36.75116 -24.143097c-7.868866 -3.3979187 -23.964264 -8.1371155 -48.286194 -14.217621l0 -139.22516c15.737732 3.2190704 28.10733 9.895676 37.108826 20.029816c9.061096 10.074539 15.022369 24.590195 17.883759 43.546997l49.895752 -7.5111847c-4.2921143 -30.581253 -16.989594 -54.634933 -38.092438 -72.161026c-16.453094 -13.770508 -38.718384 -21.99704 -66.7959 -24.679611l0 -23.070068z" fill-rule="evenodd"/></g></svg>