<?xml version="1.0" encoding="utf-8"?>
<!-- Generator: Adobe Illustrator 16.0.0, SVG Export Plug-In . SVG Version: 6.00 Build 0)	-->
<!DOCTYPE svg PUBLIC "-//W3C//DTD SVG 1.1//EN" "http://www.w3.org/Graphics/SVG/1.1/DTD/svg11.dtd">
<svg version="1.1" id="圖層_1" xmlns="http://www.w3.org/2000/svg" xmlns:xlink="http://www.w3.org/1999/xlink" x="0px" y="0px"
	 width="680.31px" height="368.5px" viewBox="0 0 680.31 368.5" enable-background="new 0 0 680.31 368.5" xml:space="preserve">
<g>
	<g>
		<rect x="18.07" y="11.86" fill="#F6F6F6" stroke="#140305" width="35.619" height="36.487"/>
		<text transform="matrix(1 0 0 1 29.333 36.7153)" font-family="'ArialMT'" font-size="18">H</text>
	</g>
	<g>
		<rect x="18.07" y="48.347" fill="#CC80FF" stroke="#231815" width="35.619" height="36.487"/>
		<text transform="matrix(1 0 0 1 29.2148 73.2021)" font-family="'ArialMT'" font-size="18">Li</text>
	</g>
	<g>
		<rect x="18.07" y="84.833" fill="#AB5CF3" stroke="#231815" width="35.619" height="36.487"/>
		<text transform="matrix(1 0 0 1 24.2148 109.689)" font-family="'ArialMT'" font-size="18">Na</text>
	</g>
	<g>
		<rect x="18.07" y="121.32" fill="#8F40D4" stroke="#231815" width="35.619" height="36.487"/>
		<text transform="matrix(1 0 0 1 30.2148 146.1758)" font-family="'ArialMT'" font-size="18">K</text>
	</g>
	<g>
		<rect x="18.07" y="157.807" fill="#702EB0" stroke="#231815" width="35.619" height="36.486"/>
		<text transform="matrix(1 0 0 1 24.2148 182.6621)" font-family="'ArialMT'" font-size="18">Rb</text>
	</g>
	<g>
		<rect x="18.07" y="194.146" fill="#57178F" stroke="#231815" width="35.619" height="36.486"/>
		<text transform="matrix(1 0 0 1 25.2148 219.002)" font-family="'ArialMT'" font-size="18">Cs</text>
	</g>
	<g>
		<rect x="18.07" y="230.633" fill="#420066" stroke="#231815" width="35.619" height="36.486"/>
		<text transform="matrix(1 0 0 1 27.2148 255.4883)" font-family="'ArialMT'" font-size="18">Fr</text>
	</g>
	<g>
		<rect x="53.688" y="48.347" fill="#C2FF00" stroke="#231815" width="35.619" height="36.487"/>
		<text transform="matrix(1 0 0 1 60.8335 73.2021)" font-family="'ArialMT'" font-size="18">Be</text>
	</g>
	<g>
		<rect x="53.688" y="84.833" fill="#8AFF00" stroke="#231815" width="35.619" height="36.487"/>
		<text transform="matrix(1 0 0 1 58.8335 109.689)" font-family="'ArialMT'" font-size="18">Mg</text>
	</g>
	<g>
		<rect x="53.688" y="121.32" fill="#3DFF00" stroke="#231815" width="35.618" height="36.487"/>
		<text transform="matrix(1 0 0 1 59.8335 146.1758)" font-family="'ArialMT'" font-size="18">Ca</text>
	</g>
	<g>
		<rect x="53.688" y="157.806" fill="#00FF00" stroke="#231815" width="35.618" height="36.487"/>
		<text transform="matrix(1 0 0 1 61.8335 182.6621)" font-family="'ArialMT'" font-size="18">Sr</text>
	</g>
	<g>
		<rect x="53.688" y="194.146" fill="#00CA00" stroke="#231815" width="35.618" height="36.488"/>
		<text transform="matrix(1 0 0 1 59.8335 219.0029)" font-family="'ArialMT'" font-size="18">Ba</text>
	</g>
	<g>
		<rect x="53.688" y="230.633" fill="#007D00" stroke="#231815" width="35.618" height="36.488"/>
		<text transform="matrix(1 0 0 1 59.8335 255.4893)" font-family="'ArialMT'" font-size="18">Ra</text>
	</g>
	<g>
		<rect x="89.307" y="121.32" fill="#E6E6E6" stroke="#231815" width="35.618" height="36.487"/>
		<text transform="matrix(1 0 0 1 96.4517 146.1758)" font-family="'ArialMT'" font-size="18">Sc</text>
	</g>
	<g>
		<rect x="89.307" y="157.806" fill="#94FFFF" stroke="#231815" width="35.618" height="36.487"/>
		<text transform="matrix(1 0 0 1 101.4517 182.6621)" font-family="'ArialMT'" font-size="18">Y</text>
	</g>
	<g>
		<rect x="89.307" y="194.146" fill="#00AB23" stroke="#231815" width="35.618" height="36.486"/>
		<text transform="matrix(1 0 0 1 97.4517 219.002)" font-family="'ArialMT'" font-size="18">Lu</text>
	</g>
	<g>
		<rect x="89.307" y="230.633" fill="#C70066" stroke="#231815" width="35.618" height="36.488"/>
		<text transform="matrix(1 0 0 1 99.4517 255.4893)" font-family="'ArialMT'" font-size="18">Lr</text>
	</g>
	<g>
		<rect x="89.307" y="285.119" fill="#70D4FF" stroke="#231815" width="35.618" height="36.488"/>
		<text transform="matrix(1 0 0 1 97.4517 309.9756)" font-family="'ArialMT'" font-size="18">La</text>
	</g>
	<g>
		<rect x="89.307" y="321.607" fill="#70ABFA" stroke="#231815" width="35.618" height="36.486"/>
		<text transform="matrix(1 0 0 1 97.4517 346.4629)" font-family="'ArialMT'" font-size="18">Ac</text>
	</g>
	<g>
		<rect x="124.925" y="121.32" fill="#BFC2C7" stroke="#231815" width="35.618" height="36.487"/>
		<text transform="matrix(1 0 0 1 135.0698 146.1758)"><tspan x="0" y="0" font-family="'ArialMT'" font-size="18">T</tspan><tspan x="10.327" y="0" font-family="'ArialMT'" font-size="18">i</tspan></text>
	</g>
	<g>
		<rect x="124.925" y="157.806" fill="#94E1E1" stroke="#231815" width="35.618" height="36.487"/>
		<text transform="matrix(1 0 0 1 134.0698 182.6621)" font-family="'ArialMT'" font-size="18">Zr</text>
	</g>
	<g>
		<rect x="124.925" y="194.146" fill="#4CC2FF" stroke="#231815" width="35.618" height="36.486"/>
		<text transform="matrix(1 0 0 1 133.0698 219.002)" font-family="'ArialMT'" font-size="18">Hf</text>
	</g>
	<g>
		<rect x="124.925" y="230.633" fill="#CC0059" stroke="#231815" width="35.618" height="36.488"/>
		<text transform="matrix(1 0 0 1 133.0698 255.4893)" font-family="'ArialMT'" font-size="18">Rf</text>
	</g>
	<g>
		<rect x="124.925" y="285.119" fill="#FFFFC7" stroke="#231815" width="35.617" height="36.488"/>
		<text transform="matrix(1 0 0 1 132.0698 309.9756)" font-family="'ArialMT'" font-size="18">Ce</text>
	</g>
	<g>
		<rect x="124.925" y="321.607" fill="#00BAFF" stroke="#231815" width="35.617" height="36.486"/>
		<text transform="matrix(1 0 0 1 132.0698 346.4629)" font-family="'ArialMT'" font-size="18">Th</text>
	</g>
	<g>
		<rect x="160.543" y="121.32" fill="#A6A6AB" stroke="#231815" width="35.618" height="36.487"/>
		<text transform="matrix(1 0 0 1 172.688 146.1758)" font-family="'ArialMT'" font-size="18">V</text>
	</g>
	<g>
		<rect x="160.542" y="157.807" fill="#73C2CA" stroke="#231815" width="35.62" height="36.488"/>
		<text transform="matrix(1 0 0 1 167.688 182.6631)" font-family="'ArialMT'" font-size="18">Nb</text>
	</g>
	<g>
		<rect x="160.542" y="194.146" fill="#4CA6FF" stroke="#231815" width="35.619" height="36.486"/>
		<text transform="matrix(1 0 0 1 168.6875 219.002)"><tspan x="0" y="0" font-family="'ArialMT'" font-size="18" letter-spacing="-1">T</tspan><tspan x="9" y="0" font-family="'ArialMT'" font-size="18">a</tspan></text>
	</g>
	<g>
		<rect x="160.542" y="230.633" fill="#D1004F" stroke="#231815" width="35.618" height="36.486"/>
		<text transform="matrix(1 0 0 1 167.687 255.4883)" font-family="'ArialMT'" font-size="18">Db</text>
	</g>
	<g>
		<rect x="160.543" y="285.119" fill="#D9FFC7" stroke="#231815" width="35.617" height="36.488"/>
		<text transform="matrix(1 0 0 1 169.6885 309.9756)" font-family="'ArialMT'" font-size="18">Pr</text>
	</g>
	<g>
		<rect x="160.544" y="321.607" fill="#00A1FF" stroke="#231815" width="35.617" height="36.486"/>
		<text transform="matrix(1 0 0 1 167.6885 346.4629)" font-family="'ArialMT'" font-size="18">Pa</text>
	</g>
	<g>
		<rect x="196.16" y="121.32" fill="#8A99C7" stroke="#231815" width="35.618" height="36.487"/>
		<text transform="matrix(1 0 0 1 204.3052 146.1758)" font-family="'ArialMT'" font-size="18">Cr</text>
	</g>
	<g>
		<rect x="196.159" y="157.807" fill="#54B5B5" stroke="#231815" width="35.62" height="36.488"/>
		<text transform="matrix(1 0 0 1 201.3047 182.6631)" font-family="'ArialMT'" font-size="18">Mo</text>
	</g>
	<g>
		<rect x="196.16" y="194.146" fill="#2194D7" stroke="#231815" width="35.619" height="36.488"/>
		<text transform="matrix(1 0 0 1 205.3062 219.0029)" font-family="'ArialMT'" font-size="18">W</text>
	</g>
	<g>
		<rect x="196.161" y="230.633" fill="#D90045" stroke="#231815" width="35.617" height="36.488"/>
		<text transform="matrix(1 0 0 1 203.3057 255.4893)" font-family="'ArialMT'" font-size="18">Sg</text>
	</g>
	<g>
		<rect x="196.162" y="285.119" fill="#C7FFC7" stroke="#231815" width="35.617" height="36.488"/>
		<text transform="matrix(1 0 0 1 203.3071 309.9756)" font-family="'ArialMT'" font-size="18">Nd</text>
	</g>
	<g>
		<rect x="196.162" y="321.607" fill="#008FFF" stroke="#231815" width="35.617" height="36.486"/>
		<text transform="matrix(1 0 0 1 208.3071 346.4629)" font-family="'ArialMT'" font-size="18">U</text>
	</g>
	<g>
		<rect x="231.778" y="121.32" fill="#9C7AC7" stroke="#231815" width="35.618" height="36.487"/>
		<text transform="matrix(1 0 0 1 237.9233 146.1758)" font-family="'ArialMT'" font-size="18">Mn</text>
	</g>
	<g>
		<rect x="231.777" y="157.806" fill="#3A9E9E" stroke="#231815" width="35.62" height="36.487"/>
		<text transform="matrix(1 0 0 1 240.9229 182.6621)"><tspan x="0" y="0" font-family="'ArialMT'" font-size="18" letter-spacing="-1">T</tspan><tspan x="9" y="0" font-family="'ArialMT'" font-size="18">c</tspan></text>
	</g>
	<g>
		<rect x="231.777" y="194.146" fill="#267DAB" stroke="#231815" width="35.619" height="36.486"/>
		<text transform="matrix(1 0 0 1 237.9233 219.002)" font-family="'ArialMT'" font-size="18">Re</text>
	</g>
	<g>
		<rect x="231.778" y="230.633" fill="#E10038" stroke="#231815" width="35.617" height="36.488"/>
		<text transform="matrix(1 0 0 1 238.9229 255.4893)" font-family="'ArialMT'" font-size="18">Bh</text>
	</g>
	<g>
		<rect x="267.397" y="121.32" fill="#E16633" stroke="#231815" width="35.618" height="36.487"/>
		<text transform="matrix(1 0 0 1 274.5425 146.1758)" font-family="'ArialMT'" font-size="18">Fe</text>
	</g>
	<g>
		<rect x="231.778" y="285.119" fill="#A3FFC7" stroke="#231815" width="35.617" height="36.488"/>
		<text transform="matrix(1 0 0 1 235.9233 309.9756)" font-family="'ArialMT'" font-size="18">Pm</text>
	</g>
	<g>
		<rect x="231.778" y="321.607" fill="#0080FF" stroke="#231815" width="35.617" height="36.486"/>
		<text transform="matrix(1 0 0 1 238.9233 346.4629)" font-family="'ArialMT'" font-size="18">Np</text>
	</g>
	<g>
		<rect x="267.396" y="157.806" fill="#238F8F" stroke="#231815" width="35.62" height="36.487"/>
		<text transform="matrix(1 0 0 1 273.542 182.6621)" font-family="'ArialMT'" font-size="18">Ru</text>
	</g>
	<g>
		<rect x="267.396" y="194.146" fill="#266697" stroke="#231815" width="35.619" height="36.486"/>
		<text transform="matrix(1 0 0 1 273.5425 219.002)" font-family="'ArialMT'" font-size="18">Os</text>
	</g>
	<g>
		<rect x="267.397" y="230.633" fill="#E6002E" stroke="#231815" width="35.617" height="36.488"/>
		<text transform="matrix(1 0 0 1 274.542 255.4893)" font-family="'ArialMT'" font-size="18">Hs</text>
	</g>
	<g>
		<rect x="267.398" y="285.119" fill="#8FFFC7" stroke="#231815" width="35.617" height="36.488"/>
		<text transform="matrix(1 0 0 1 271.5435 309.9756)" font-family="'ArialMT'" font-size="18">Sm</text>
	</g>
	<g>
		<rect x="267.398" y="321.607" fill="#006BFF" stroke="#231815" width="35.617" height="36.486"/>
		<text transform="matrix(1 0 0 1 274.5435 346.4629)" font-family="'ArialMT'" font-size="18">Pu</text>
	</g>
	<g>
		<rect x="303.017" y="121.319" fill="#F08FA1" stroke="#231815" width="35.618" height="36.489"/>
		<text transform="matrix(1 0 0 1 309.1616 146.1758)" font-family="'ArialMT'" font-size="18">Co</text>
	</g>
	<g>
		<rect x="303.016" y="157.806" fill="#0A7D8C" stroke="#231815" width="35.62" height="36.487"/>
		<text transform="matrix(1 0 0 1 309.1611 182.6621)" font-family="'ArialMT'" font-size="18">Rh</text>
	</g>
	<g>
		<rect x="303.017" y="194.146" fill="#175487" stroke="#231815" width="35.619" height="36.486"/>
		<text transform="matrix(1 0 0 1 315.1626 219.002)" font-family="'ArialMT'" font-size="18">Ir</text>
	</g>
	<g>
		<rect x="303.018" y="230.633" fill="#EB0026" stroke="#231815" width="35.617" height="36.486"/>
		<text transform="matrix(1 0 0 1 310.1621 255.4883)" font-family="'ArialMT'" font-size="18">Mt</text>
	</g>
	<g>
		<rect x="303.018" y="285.119" fill="#61FFC7" stroke="#231815" width="35.617" height="36.488"/>
		<text transform="matrix(1 0 0 1 309.1626 309.9756)" font-family="'ArialMT'" font-size="18">Eu</text>
	</g>
	<g>
		<rect x="303.018" y="321.607" fill="#545CF3" stroke="#231815" width="35.617" height="36.486"/>
		<text transform="matrix(1 0 0 1 307.1626 346.4629)" font-family="'ArialMT'" font-size="18">Am</text>
	</g>
	<g>
		<rect x="338.635" y="121.32" fill="#4FD14F" stroke="#231815" width="35.618" height="36.488"/>
		<text transform="matrix(1 0 0 1 347.7793 146.1758)" font-family="'ArialMT'" font-size="18">Ni</text>
	</g>
	<g>
		<rect x="338.634" y="157.807" fill="#006885" stroke="#231815" width="35.62" height="36.488"/>
		<text transform="matrix(1 0 0 1 345.7793 182.6631)" font-family="'ArialMT'" font-size="18">Pd</text>
	</g>
	<g>
		<rect x="338.635" y="194.146" fill="#F5EED1" stroke="#231815" width="35.619" height="36.488"/>
		<text transform="matrix(1 0 0 1 347.7813 219.0029)" font-family="'ArialMT'" font-size="18">Pt</text>
	</g>
	<g>
		<rect x="338.636" y="230.633" fill="#EE0023" stroke="#231815" width="35.617" height="36.486"/>
		<text transform="matrix(1 0 0 1 345.7803 255.4883)" font-family="'ArialMT'" font-size="18">Ds</text>
	</g>
	<g>
		<rect x="338.636" y="285.119" fill="#45FFC7" stroke="#231815" width="35.617" height="36.488"/>
		<text transform="matrix(1 0 0 1 344.7813 309.9756)" font-family="'ArialMT'" font-size="18">Gd</text>
	</g>
	<g>
		<rect x="338.636" y="321.607" fill="#785CE3" stroke="#231815" width="35.617" height="36.486"/>
		<text transform="matrix(1 0 0 1 342.7813 346.4629)" font-family="'ArialMT'" font-size="18">Cm</text>
	</g>
	<g>
		<rect x="374.254" y="121.32" fill="#C78033" stroke="#231815" width="35.618" height="36.488"/>
		<text transform="matrix(1 0 0 1 380.3984 146.1758)" font-family="'ArialMT'" font-size="18">Cu</text>
	</g>
	<g>
		<rect x="374.253" y="157.807" fill="#E1E1FF" stroke="#231815" width="35.62" height="36.488"/>
		<text transform="matrix(1 0 0 1 381.3984 182.6631)" font-family="'ArialMT'" font-size="18">Ag</text>
	</g>
	<g>
		<rect x="374.254" y="194.146" fill="#CCD11E" stroke="#231815" width="35.619" height="36.488"/>
		<text transform="matrix(1 0 0 1 381.4004 219.0029)" font-family="'ArialMT'" font-size="18">Au</text>
	</g>
	<g>
		<rect x="374.255" y="230.633" fill="#F00021" stroke="#231815" width="35.617" height="36.488"/>
		<text transform="matrix(1 0 0 1 381.3994 255.4893)" font-family="'ArialMT'" font-size="18">Rg</text>
	</g>
	<g>
		<rect x="374.255" y="285.119" fill="#30FFC7" stroke="#231815" width="35.617" height="36.488"/>
		<text transform="matrix(1 0 0 1 381.4004 309.9756)" font-family="'ArialMT'" font-size="18">Tb</text>
	</g>
	<g>
		<rect x="374.254" y="321.607" fill="#8A4FE3" stroke="#231815" width="35.617" height="36.486"/>
		<text transform="matrix(1 0 0 1 381.3984 346.4629)" font-family="'ArialMT'" font-size="18">Bk</text>
	</g>
	<g>
		<rect x="409.872" y="121.319" fill="#7D80B0" stroke="#231815" width="35.618" height="36.489"/>
		<text transform="matrix(1 0 0 1 417.0176 146.1753)" font-family="'ArialMT'" font-size="18">Zn</text>
	</g>
	<g>
		<rect x="409.871" y="157.807" fill="#FFD98F" stroke="#231815" width="35.62" height="36.488"/>
		<text transform="matrix(1 0 0 1 416.0166 182.6631)" font-family="'ArialMT'" font-size="18">Cd</text>
	</g>
	<g>
		<rect x="409.871" y="194.146" fill="#B5B5C2" stroke="#231815" width="35.619" height="36.486"/>
		<text transform="matrix(1 0 0 1 417.0176 219.002)" font-family="'ArialMT'" font-size="18">Hg</text>
	</g>
	<g>
		<rect x="409.873" y="230.633" fill="#F3001E" stroke="#231815" width="35.617" height="36.488"/>
		<text transform="matrix(1 0 0 1 416.0176 255.4893)" font-family="'ArialMT'" font-size="18">Cn</text>
	</g>
	<g>
		<rect x="409.873" y="285.119" fill="#1EFFC7" stroke="#231815" width="35.617" height="36.488"/>
		<text transform="matrix(1 0 0 1 417.0176 309.9756)" font-family="'ArialMT'" font-size="18">Dy</text>
	</g>
	<g>
		<rect x="409.872" y="321.607" fill="#A135D4" stroke="#231815" width="35.617" height="36.486"/>
		<text transform="matrix(1 0 0 1 418.0176 346.4629)" font-family="'ArialMT'" font-size="18">Cf</text>
	</g>
	<g>
		<rect x="445.49" y="121.319" fill="#C28F8F" stroke="#231815" width="35.618" height="36.489"/>
		<text transform="matrix(1 0 0 1 451.6348 146.1748)" font-family="'ArialMT'" font-size="18">Ga</text>
	</g>
	<g>
		<rect x="445.49" y="84.831" fill="#BFA6A6" stroke="#231815" width="35.618" height="36.489"/>
		<text transform="matrix(1 0 0 1 455.6348 109.6865)" font-family="'ArialMT'" font-size="18">Al</text>
	</g>
	<g>
		<rect x="445.49" y="48.341" fill="#FFB5B5" stroke="#231815" width="35.618" height="36.489"/>
		<text transform="matrix(1 0 0 1 457.6348 73.1973)" font-family="'ArialMT'" font-size="18">B</text>
	</g>
	<g>
		<rect x="445.489" y="157.806" fill="#A67573" stroke="#231815" width="35.62" height="36.487"/>
		<text transform="matrix(1 0 0 1 455.6348 182.6621)" font-family="'ArialMT'" font-size="18">In</text>
	</g>
	<g>
		<rect x="445.489" y="194.146" fill="#A6544C" stroke="#231815" width="35.62" height="36.486"/>
		<text transform="matrix(1 0 0 1 455.6348 219.002)" font-family="'ArialMT'" font-size="18">Tl</text>
	</g>
	<g>
		<rect x="445.491" y="230.633" fill="#F5001C" stroke="#231815" width="35.617" height="36.488"/>
		<text transform="matrix(1 0 0 1 451.6357 255.4893)" font-family="'ArialMT'" font-size="18">Nh</text>
	</g>
	<g>
		<rect x="445.491" y="285.119" fill="#00FF9C" stroke="#231815" width="35.617" height="36.488"/>
		<text transform="matrix(1 0 0 1 451.6367 309.9756)" font-family="'ArialMT'" font-size="18">Ho</text>
	</g>
	<g>
		<rect x="445.491" y="321.607" fill="#B31ED4" stroke="#231815" width="35.617" height="36.486"/>
		<text transform="matrix(1 0 0 1 452.6367 346.4629)" font-family="'ArialMT'" font-size="18">Es</text>
	</g>
	<g>
		<rect x="481.109" y="48.341" fill="#666666" stroke="#231815" width="35.618" height="36.489"/>
		<text transform="matrix(1 0 0 1 492.2539 73.1973)" font-family="'ArialMT'" font-size="18">C</text>
	</g>
	<g>
		<rect x="481.109" y="84.831" fill="#809999" stroke="#231815" width="35.618" height="36.489"/>
		<text transform="matrix(1 0 0 1 491.2539 109.6865)" font-family="'ArialMT'" font-size="18">Si</text>
	</g>
	<g>
		<rect x="481.109" y="121.319" fill="#668F8F" stroke="#231815" width="35.618" height="36.489"/>
		<text transform="matrix(1 0 0 1 487.2539 146.1753)" font-family="'ArialMT'" font-size="18">Ge</text>
	</g>
	<g>
		<rect x="481.109" y="157.806" fill="#668080" stroke="#231815" width="35.618" height="36.489"/>
		<text transform="matrix(1 0 0 1 488.2539 182.6616)" font-family="'ArialMT'" font-size="18">Sn</text>
	</g>
	<g>
		<rect x="481.109" y="194.146" fill="#575961" stroke="#231815" width="35.618" height="36.488"/>
		<text transform="matrix(1 0 0 1 488.2539 219.002)" font-family="'ArialMT'" font-size="18">Pb</text>
	</g>
	<g>
		<rect x="481.109" y="230.633" fill="#FD0014" stroke="#231815" width="35.617" height="36.488"/>
		<text transform="matrix(1 0 0 1 491.2539 255.4893)" font-family="'ArialMT'" font-size="18">Fl</text>
	</g>
	<g>
		<rect x="481.109" y="285.119" fill="#00E675" stroke="#231815" width="35.617" height="36.488"/>
		<text transform="matrix(1 0 0 1 490.2539 309.9756)" font-family="'ArialMT'" font-size="18">Er</text>
	</g>
	<g>
		<rect x="481.109" y="321.607" fill="#B31EBA" stroke="#231815" width="35.617" height="36.486"/>
		<text transform="matrix(1 0 0 1 486.2539 346.4629)" font-family="'ArialMT'" font-size="18">Fm</text>
	</g>
	<g>
		<rect x="516.728" y="48.341" fill="#0C0CFF" stroke="#231815" width="35.618" height="36.489"/>
		<text transform="matrix(1 0 0 1 527.873 73.1973)" font-family="'ArialMT'" font-size="18">N</text>
	</g>
	<g>
		<rect x="516.728" y="84.831" fill="#FF8000" stroke="#231815" width="35.618" height="36.489"/>
		<text transform="matrix(1 0 0 1 528.873 109.6865)" font-family="'ArialMT'" font-size="18">P</text>
	</g>
	<g>
		<rect x="516.728" y="121.32" fill="#BD80E3" stroke="#231815" width="35.618" height="36.488"/>
		<text transform="matrix(1 0 0 1 523.873 146.1758)" font-family="'ArialMT'" font-size="18">As</text>
	</g>
	<g>
		<rect x="516.728" y="157.806" fill="#9E63B5" stroke="#231815" width="35.618" height="36.489"/>
		<text transform="matrix(1 0 0 1 523.873 182.6621)" font-family="'ArialMT'" font-size="18">Sb</text>
	</g>
	<g>
		<rect x="516.728" y="194.146" fill="#9E4FB5" stroke="#231815" width="35.618" height="36.488"/>
		<text transform="matrix(1 0 0 1 525.873 219.002)" font-family="'ArialMT'" font-size="18">Bi</text>
	</g>
	<g>
		<rect x="516.728" y="230.633" fill="#FA0017" stroke="#231815" width="35.617" height="36.486"/>
		<text transform="matrix(1 0 0 1 522.8721 255.4883)" font-family="'ArialMT'" font-size="18">Mc</text>
	</g>
	<g>
		<rect x="516.728" y="285.119" fill="#00D451" stroke="#231815" width="35.617" height="36.488"/>
		<text transform="matrix(1 0 0 1 521.873 309.9756)" font-family="'ArialMT'" font-size="18">Tm</text>
	</g>
	<g>
		<rect x="516.728" y="321.607" fill="#B30CA6" stroke="#231815" width="35.617" height="36.486"/>
		<text transform="matrix(1 0 0 1 521.873 346.4629)" font-family="'ArialMT'" font-size="18">Md</text>
	</g>
	<g>
		<rect x="552.346" y="48.341" fill="#FF0C0C" stroke="#231815" width="35.618" height="36.489"/>
		<text transform="matrix(1 0 0 1 563.4902 73.1973)" font-family="'ArialMT'" font-size="18">O</text>
	</g>
	<g>
		<rect x="552.346" y="84.831" fill="#B3B300" stroke="#231815" width="35.618" height="36.489"/>
		<text transform="matrix(1 0 0 1 564.4902 109.6865)" font-family="'ArialMT'" font-size="18">S</text>
	</g>
	<g>
		<rect x="552.346" y="121.319" fill="#FFA100" stroke="#231815" width="35.618" height="36.489"/>
		<text transform="matrix(1 0 0 1 559.4902 146.1753)" font-family="'ArialMT'" font-size="18">Se</text>
	</g>
	<g>
		<rect x="552.346" y="157.806" fill="#D47A00" stroke="#231815" width="35.618" height="36.489"/>
		<text transform="matrix(1 0 0 1 560.4902 182.6626)"><tspan x="0" y="0" font-family="'ArialMT'" font-size="18" letter-spacing="-1">T</tspan><tspan x="9" y="0" font-family="'ArialMT'" font-size="18">e</tspan></text>
	</g>
	<g>
		<rect x="552.346" y="194.146" fill="#AB5C00" stroke="#231815" width="35.618" height="36.488"/>
		<text transform="matrix(1 0 0 1 559.4902 219.002)" font-family="'ArialMT'" font-size="18">Po</text>
	</g>
	<g>
		<rect x="552.347" y="230.633" fill="#FD0014" stroke="#231815" width="35.617" height="36.486"/>
		<text transform="matrix(1 0 0 1 560.4912 255.4883)" font-family="'ArialMT'" font-size="18">Lv</text>
	</g>
	<g>
		<rect x="552.346" y="285.119" fill="#00BF38" stroke="#231815" width="35.617" height="36.488"/>
		<text transform="matrix(1 0 0 1 559.4902 309.9756)" font-family="'ArialMT'" font-size="18">Yb</text>
	</g>
	<g>
		<rect x="552.346" y="321.607" fill="#BD0C87" stroke="#231815" width="35.617" height="36.486"/>
		<text transform="matrix(1 0 0 1 558.4902 346.4629)" font-family="'ArialMT'" font-size="18">No</text>
	</g>
	<g>
		<rect x="587.963" y="285.119" fill="#00AB23" stroke="#231815" width="35.618" height="36.488"/>
		<text transform="matrix(1 0 0 1 596.1074 309.9756)" font-family="'ArialMT'" font-size="18">Lu</text>
	</g>
	<g>
		<rect x="587.963" y="321.607" fill="#C70066" stroke="#231815" width="35.618" height="36.486"/>
		<text transform="matrix(1 0 0 1 598.1074 346.4629)" font-family="'ArialMT'" font-size="18">Lr</text>
	</g>
	<g>
		<rect x="587.963" y="230.633" fill="#FD0014" stroke="#231815" width="35.617" height="36.486"/>
		<text transform="matrix(1 0 0 1 597.1074 255.4883)"><tspan x="0" y="0" font-family="'ArialMT'" font-size="18" letter-spacing="-1">T</tspan><tspan x="9" y="0" font-family="'ArialMT'" font-size="18">s</tspan></text>
	</g>
	<g>
		<rect x="587.963" y="194.145" fill="#754F45" stroke="#231815" width="35.618" height="36.488"/>
		<text transform="matrix(1 0 0 1 597.1074 219)" font-family="'ArialMT'" font-size="18">At</text>
	</g>
	<g>
		<rect x="587.963" y="157.806" fill="#940094" stroke="#231815" width="35.618" height="36.489"/>
		<text transform="matrix(1 0 0 1 603.1074 182.6626)" font-family="'ArialMT'" font-size="18">I</text>
	</g>
	<g>
		<rect x="587.962" y="121.321" fill="#A62828" stroke="#231815" width="35.62" height="36.486"/>
		<text transform="matrix(1 0 0 1 597.1074 146.1763)" font-family="'ArialMT'" font-size="18">Br</text>
	</g>
	<g>
		<rect x="587.963" y="84.831" fill="#1EF01E" stroke="#231815" width="35.618" height="36.489"/>
		<text transform="matrix(1 0 0 1 597.1074 109.687)" font-family="'ArialMT'" font-size="18">Cl</text>
	</g>
	<g>
		<rect x="587.963" y="48.342" fill="#80B3FF" stroke="#231815" width="35.618" height="36.489"/>
		<text transform="matrix(1 0 0 1 600.1074 73.1978)" font-family="'ArialMT'" font-size="18">F</text>
	</g>
	<g>
		<rect x="623.582" y="230.633" fill="#FD0014" stroke="#231815" width="35.617" height="36.486"/>
		<text transform="matrix(1 0 0 1 629.7266 255.4883)" font-family="'ArialMT'" font-size="18">Og</text>
	</g>
	<g>
		<rect x="18.07" y="267.121" fill="#FD0014" stroke="#231815" width="35.617" height="36.486"/>
		<text transform="matrix(1 0 0 1 19.2148 291.9766)" font-family="'ArialMT'" font-size="18">Uue</text>
	</g>
	<g>
		<rect x="623.582" y="194.145" fill="#428297" stroke="#231815" width="35.618" height="36.488"/>
		<text transform="matrix(1 0 0 1 629.7266 219)" font-family="'ArialMT'" font-size="18">Rn</text>
	</g>
	<g>
		<rect x="623.582" y="157.805" fill="#429EB0" stroke="#231815" width="35.618" height="36.488"/>
		<text transform="matrix(1 0 0 1 630.7266 182.6606)" font-family="'ArialMT'" font-size="18">Xe</text>
	</g>
	<g>
		<rect x="623.582" y="121.319" fill="#5CB8D1" stroke="#231815" width="35.618" height="36.488"/>
		<text transform="matrix(1 0 0 1 632.7266 146.1743)" font-family="'ArialMT'" font-size="18">Kr</text>
	</g>
	<g>
		<rect x="623.581" y="84.831" fill="#80D1E3" stroke="#231815" width="35.618" height="36.488"/>
		<text transform="matrix(1 0 0 1 631.7266 109.6865)" font-family="'ArialMT'" font-size="18">Ar</text>
	</g>
	<g>
		<rect x="623.581" y="48.342" fill="#B3E3F5" stroke="#231815" width="35.618" height="36.488"/>
		<text transform="matrix(1 0 0 1 629.7266 73.1978)" font-family="'ArialMT'" font-size="18">Ne</text>
	</g>
	<g>
		<rect x="623.582" y="11.854" fill="#D9FFFF" stroke="#231815" width="35.618" height="36.488"/>
		<text transform="matrix(1 0 0 1 629.7266 36.7095)" font-family="'ArialMT'" font-size="18">He</text>
	</g>
</g>
</svg>
