<svg version="1.1" viewBox="0.0 0.0 755.9055118110236 755.9055118110236" fill="none" stroke="none" stroke-linecap="square" stroke-miterlimit="10" xmlns:xlink="http://www.w3.org/1999/xlink" xmlns="http://www.w3.org/2000/svg"><clipPath id="p.0"><path d="m0 0l755.9055 0l0 755.9055l-755.9055 0l0 -755.9055z" clip-rule="nonzero"/></clipPath><g clip-path="url(#p.0)"><path fill="#000000" fill-opacity="0.0" d="m0 0l755.9055 0l0 755.9055l-755.9055 0z" fill-rule="evenodd"/><path fill="#b9f166" d="m30.005774 377.95853l0 0c0 -192.16899 155.78377 -347.95276 347.95276 -347.95276l0 0c92.28281 0 180.78598 36.659203 246.03976 101.913c65.253784 65.2538 101.913025 153.75694 101.913025 246.03975l0 0c0 192.16898 -155.78381 347.9528 -347.9528 347.9528l0 0c-192.16899 0 -347.95276 -155.78381 -347.95276 -347.9528z" fill-rule="evenodd"/><path fill="#92b166" d="m378.08948 34.12921l0 0c153.25208 0.059513092 287.96307 101.53888 330.3078 248.8247c42.344727 147.28586 -17.901062 304.81537 -147.72119 386.2583c-129.82004 81.44287 -297.8688 67.13434 -412.05106 -35.084106l33.074112 -36.94513l0 0c97.71489 87.4765 241.52763 99.721436 352.62506 30.024231c111.09741 -69.697205 162.6546 -204.50781 126.41681 -330.5521c-36.237793 -126.044266 -151.52075 -212.88828 -282.6708 -212.93921z" fill-rule="evenodd"/><path fill="#9fc568" d="m378.06088 83.39535l0 0c113.42157 0.044052124 216.74173 65.208046 265.64786 167.54398c48.906128 102.33592 34.7088 223.6613 -36.50293 311.94116c-71.21173 88.27991 -186.78537 127.82922 -297.1528 101.68573l11.809387 -49.854614l0 0c91.170135 21.59607 186.64087 -11.074036 245.46603 -83.998535c58.825195 -72.92447 70.55304 -173.14651 30.153625 -257.68213c-40.399353 -84.535614 -125.74805 -138.36497 -219.44107 -138.40137z" fill-rule="evenodd"/><path fill="#afdd6c" d="m378.0442 134.5166l0 0c104.689545 0.040664673 197.62909 67.01047 230.7976 166.30673c33.16858 99.296265 -0.862854 208.67896 -84.51056 271.63107l-37.063812 -49.248596c62.46811 -47.012634 87.88278 -128.69965 63.11252 -202.8541c-24.770264 -74.15445 -94.17755 -124.167496 -172.35968 -124.19786z" fill-rule="evenodd"/><path fill="#000000" d="m238.26216 239.57901l0 268.3282l171.31578 0l0 -22.584259l-147.9205 0l0 -103.12634l130.70157 0l0 -23.020966l-130.70157 0l0 -97.32431l143.36621 0l0 -22.272308z" fill-rule="evenodd"/><path fill="#000000" d="m494.26215 239.57901l0 276.75046l23.332886 0l0 -276.75046z" fill-rule="evenodd"/><path fill="#000000" fill-opacity="0.0" d="m30.005774 377.95853l0 0c0 -192.16899 155.78377 -347.95276 347.95276 -347.95276l0 0c92.28281 0 180.78598 36.659203 246.03976 101.913c65.253784 65.2538 101.913025 153.75694 101.913025 246.03975l0 0c0 192.16898 -155.78381 347.9528 -347.9528 347.9528l0 0c-192.16899 0 -347.95276 -155.78381 -347.95276 -347.9528z" fill-rule="evenodd"/><path stroke="#000000" stroke-width="12.0" stroke-linejoin="round" stroke-linecap="butt" d="m30.005774 377.95853l0 0c0 -192.16899 155.78377 -347.95276 347.95276 -347.95276l0 0c92.28281 0 180.78598 36.659203 246.03976 101.913c65.253784 65.2538 101.913025 153.75694 101.913025 246.03975l0 0c0 192.16898 -155.78381 347.9528 -347.9528 347.9528l0 0c-192.16899 0 -347.95276 -155.78381 -347.95276 -347.9528z" fill-rule="evenodd"/></g></svg>