<svg version="1.1" viewBox="0.0 0.0 669.2047244094488 667.6010498687664" fill="none" stroke="none" stroke-linecap="square" stroke-miterlimit="10" xmlns:xlink="http://www.w3.org/1999/xlink" xmlns="http://www.w3.org/2000/svg"><clipPath id="p.0"><path d="m0 0l669.2047 0l0 667.6011l-669.2047 0l0 -667.6011z" clip-rule="nonzero"/></clipPath><g clip-path="url(#p.0)"><path fill="#000000" fill-opacity="0.0" d="m0 0l669.2047 0l0 667.6011l-669.2047 0z" fill-rule="evenodd"/><path fill="#ffcc00" d="m3.0893106 333.7993l0 0c0 -183.08891 148.4229 -331.5118 331.5118 -331.5118l0 0c87.92239 0 172.24371 34.92704 234.41425 97.09756c62.170532 62.170525 97.097534 146.49185 97.097534 234.41425l0 0c0 183.0889 -148.42285 331.5118 -331.51178 331.5118l0 0c-183.08893 0 -331.5118 -148.42291 -331.5118 -331.5118z" fill-rule="evenodd"/><path fill="#000000" d="m321.58865 205.06361c51.48059 0 77.22089 20.814331 77.22089 62.442947c0 25.339172 -7.428833 43.299377 -22.28653 53.880554c-11.599426 8.353577 -32.06134 12.530365 -61.38571 12.530365l-49.655975 0l0 -128.85387zm-108.50021 -44.482758l0 346.46442l52.392883 0l0 -128.64502l58.84427 0c23.068512 0 42.748444 -2.2276 59.039764 -6.6828613c21.113556 -5.708252 37.665558 -16.219849 49.655975 -31.534729c15.378998 -19.491669 23.068512 -44.204315 23.068512 -74.13794c0 -23.668457 -6.1907043 -44.482788 -18.572113 -62.442963c-7.8198547 -11.138092 -17.268799 -19.839737 -28.346924 -26.10492c-19.940582 -11.277313 -47.70099 -16.91597 -83.28125 -16.91597z" fill-rule="evenodd"/></g></svg>